<svg xmlns="http://www.w3.org/2000/svg" width="680" height="406" viewBox="0 0 680 406" role="img">
<title>Hive versus Swarm team shapes</title>
<desc>Side by side. The Hive is a permanent team: you talk to Mason, who assigns work to Thistle and Bramble, and those two verify each other. The Swarm is a temporary team: you talk to Comet, who assigns batches to Clover, whose work goes to Willow for verification, and the verdict returns to Comet.</desc>
<style>text{font-family:-apple-system,BlinkMacSystemFont,"Segoe UI",Helvetica,Arial,sans-serif}.t{font-size:14px;font-weight:500;fill:#D3D1C7}.s{font-size:12px;fill:#B4B2A9}</style>
<defs><marker id="a" viewBox="0 0 10 10" refX="8" refY="5" markerWidth="6" markerHeight="6" orient="auto-start-reverse"><path d="M2 1L8 5L2 9" fill="none" stroke="#888780" stroke-width="1.5" stroke-linecap="round" stroke-linejoin="round"/></marker></defs>
<rect x="40" y="96" width="280" height="250" rx="8" fill="none" stroke="#5F5E5A" stroke-width="0.5" stroke-dasharray="5 4"/>
<text class="s" x="54" y="116">Hive · permanent</text>
<rect x="360" y="96" width="280" height="250" rx="8" fill="none" stroke="#5F5E5A" stroke-width="0.5" stroke-dasharray="5 4"/>
<text class="s" x="374" y="116">Swarm · temporary</text>
<path d="M180 188 L180 206 L112 206 L112 224" fill="none" stroke="#888780" stroke-width="1.5" marker-end="url(#a)"/>
<path d="M180 188 L180 206 L248 206 L248 224" fill="none" stroke="#888780" stroke-width="1.5" marker-end="url(#a)"/>
<path d="M500 188 L500 216" fill="none" stroke="#888780" stroke-width="1.5" marker-end="url(#a)"/>
<path d="M500 260 L500 288" fill="none" stroke="#888780" stroke-width="1.5" marker-end="url(#a)"/>
<path d="M112 268 L112 284 L248 284 L248 268" fill="none" stroke="#888780" stroke-width="1.5" stroke-dasharray="4 3"/>
<path d="M180 284 L180 296" fill="none" stroke="#888780" stroke-width="1.5" stroke-dasharray="4 3"/>
<path d="M570 310 L610 310 L610 164 L570 164" fill="none" stroke="#888780" stroke-width="1.5" stroke-dasharray="4 3" marker-end="url(#a)"/>
<path d="M180 74 L180 136" fill="none" stroke="#888780" stroke-width="1.5" marker-end="url(#a)" marker-start="url(#a)"/>
<path d="M500 74 L500 136" fill="none" stroke="#888780" stroke-width="1.5" marker-end="url(#a)" marker-start="url(#a)"/>
<rect x="130" y="40" width="100" height="34" rx="4" fill="#2C2C2A" stroke="#888780" stroke-width="0.5"/>
<text class="t" x="180" y="62" text-anchor="middle" fill="#D3D1C7">You</text>
<rect x="110" y="140" width="140" height="48" rx="4" fill="#26215C" stroke="#7F77DD" stroke-width="0.5"/>
<text class="t" x="180" y="160" text-anchor="middle" fill="#CECBF6">Mason</text>
<text class="s" x="180" y="176" text-anchor="middle" fill="#AFA9EC">never implements</text>
<rect x="54" y="224" width="116" height="44" rx="4" fill="#04342C" stroke="#1D9E75" stroke-width="0.5"/>
<text class="t" x="112" y="244" text-anchor="middle" fill="#9FE1CB">Thistle</text>
<text class="s" x="112" y="260" text-anchor="middle" fill="#5DCAA5">implements</text>
<rect x="190" y="224" width="116" height="44" rx="4" fill="#04342C" stroke="#1D9E75" stroke-width="0.5"/>
<text class="t" x="248" y="244" text-anchor="middle" fill="#9FE1CB">Bramble</text>
<text class="s" x="248" y="260" text-anchor="middle" fill="#5DCAA5">implements</text>
<rect x="450" y="40" width="100" height="34" rx="4" fill="#2C2C2A" stroke="#888780" stroke-width="0.5"/>
<text class="t" x="500" y="62" text-anchor="middle" fill="#D3D1C7">You</text>
<rect x="430" y="140" width="140" height="48" rx="4" fill="#26215C" stroke="#7F77DD" stroke-width="0.5"/>
<text class="t" x="500" y="160" text-anchor="middle" fill="#CECBF6">Comet</text>
<text class="s" x="500" y="176" text-anchor="middle" fill="#AFA9EC">owns the rulebook</text>
<rect x="430" y="216" width="140" height="44" rx="4" fill="#04342C" stroke="#1D9E75" stroke-width="0.5"/>
<text class="t" x="500" y="236" text-anchor="middle" fill="#9FE1CB">Clover</text>
<text class="s" x="500" y="252" text-anchor="middle" fill="#5DCAA5">does the work</text>
<rect x="430" y="288" width="140" height="44" rx="4" fill="#4A1B0C" stroke="#D85A30" stroke-width="0.5"/>
<text class="t" x="500" y="308" text-anchor="middle" fill="#F5C4B3">Willow</text>
<text class="s" x="500" y="324" text-anchor="middle" fill="#F0997B">verifies batches</text>
<rect x="110" y="296" width="140" height="26" rx="4" fill="#2C2C2A" stroke="#5F5E5A" stroke-width="0.5"/>
<text class="s" x="180" y="313" text-anchor="middle">verify each other</text>
<rect x="40" y="370" width="12" height="12" rx="2" fill="#26215C" stroke="#7F77DD" stroke-width="0.5"/>
<text class="s" x="58" y="380">SmartBee</text>
<rect x="130" y="370" width="12" height="12" rx="2" fill="#04342C" stroke="#1D9E75" stroke-width="0.5"/>
<text class="s" x="148" y="380">WorkerBee</text>
<rect x="226" y="370" width="12" height="12" rx="2" fill="#4A1B0C" stroke="#D85A30" stroke-width="0.5"/>
<text class="s" x="244" y="380">QuickBee</text>
<path d="M316 376 L336 376" fill="none" stroke="#888780" stroke-width="1.5" stroke-dasharray="4 3"/>
<text class="s" x="344" y="380">verification path</text>
</svg>
